<svg xmlns="http://www.w3.org/2000/svg" width="18" height="18" fill="none"><g fill="#606060" clip-path="url(#a)"><path d="M12.788 9.7h-2.446c-.669 0-1.213.545-1.213 1.214v1.876c0 .67.544 1.214 1.213 1.214h2.446c.67 0 1.214-.544 1.214-1.214v-1.876c0-.669-.544-1.213-1.214-1.213Zm.331 3.09c0 .184-.15.331-.33.331h-2.447a.332.332 0 0 1-.33-.33v-1.877c0-.184.15-.33.33-.33h2.446c.184 0 .331.15.331.33v1.876Z"/><path d="M18 6.291a.41.41 0 0 0-.059-.217l-2.677-4.708a.444.444 0 0 0-.383-.224H3.115a.436.436 0 0 0-.382.224L.059 6.074A.446.446 0 0 0 0 6.291c0 1.056.636 1.96 1.545 2.361v7.765c0 .242.198.441.441.441H16.01a.443.443 0 0 0 .442-.441v-7.71c0-.018 0-.032-.004-.047A2.59 2.59 0 0 0 18 6.29ZM3.373 2.028h11.25l2.093 3.682H1.284l2.089-3.682ZM12.81 6.59a1.695 1.695 0 0 1-3.34 0h3.34Zm-4.277 0a1.695 1.695 0 0 1-1.67 1.398c-.835 0-1.53-.603-1.673-1.398h3.343Zm-7.62 0h3.342a1.7 1.7 0 0 1-3.343 0Zm6.502 9.386H4.877v-4.763c0-.345.28-.629.629-.629H6.79c.345 0 .628.28.628.63v4.762h-.003Zm8.154 0H8.298v-4.763c0-.83-.677-1.511-1.512-1.511H5.502c-.831 0-1.511.676-1.511 1.511v4.767H2.427v-7.11c.052.004.103.004.155.004.89 0 1.677-.452 2.14-1.14a2.579 2.579 0 0 0 4.282 0 2.572 2.572 0 0 0 4.274 0 2.579 2.579 0 0 0 2.14 1.14c.052 0 .1-.004.15-.004v7.106Zm-.15-7.985c-.836 0-1.531-.603-1.67-1.397h3.342a1.706 1.706 0 0 1-1.673 1.397Z"/></g><defs><clipPath id="a"><path fill="#fff" d="M0 0h18v18H0z"/></clipPath></defs></svg>