<svg xmlns="http://www.w3.org/2000/svg" viewBox="0 0 231.1 159.94"><defs><style>.cls-1{fill:#231f20;}.cls-2{fill:#d09b2c;}</style></defs><title>Ресурс 1</title><g id="Слой_2" data-name="Слой 2"><g id="Слой_1-2" data-name="Слой 1"><path class="cls-1" d="M9.91,72.75v48.63c0,4.5,2,6.12,5.13,6.12s5.13-1.62,5.13-6.12V72.75h9.37v48c0,10.09-5,15.85-14.77,15.85S0,130.84,0,120.75v-48Z"/><path class="cls-1" d="M49.6,72c9.64,0,14.59,5.76,14.59,15.85v2H54.83V87.25c0-4.5-1.8-6.21-5-6.21s-5,1.71-5,6.21c0,13,19.36,15.4,19.36,33.41,0,10.09-5,15.85-14.77,15.85s-14.77-5.76-14.77-15.85v-3.87h9.37v4.5c0,4.5,2,6.12,5.13,6.12s5.14-1.62,5.14-6.12c0-13-19.37-15.4-19.37-33.41C35,77.79,40,72,49.6,72Z"/><path class="cls-1" d="M67.06,72.75H97.68v9H87.32v54H77.41v-54H67.06Z"/><path class="cls-1" d="M130.62,135.79h-10l-1.71-11.44H106.75L105,135.79H95.95l10.09-63h14.5Zm-22.6-20h9.55l-4.77-31.88Z"/><path class="cls-1" d="M150.05,100.67h13.87v20c0,10.09-5,15.85-14.77,15.85s-14.77-5.76-14.77-15.85V87.88c0-10.08,5-15.85,14.77-15.85s14.77,5.76,14.77,15.85V94h-9.37V87.25c0-4.5-2-6.21-5.13-6.21s-5.14,1.71-5.14,6.21v34c0,4.5,2,6.12,5.14,6.12s5.13-1.62,5.13-6.12V109.67h-4.5Z"/><path class="cls-1" d="M180.2,99.32h13.6v9H180.2v18.46h17.11v9h-27v-63h27v9H180.2Z"/><path class="cls-1" d="M217.7,130.76v-5.17h7.46c3.76,0,5.91,1.88,5.91,5.51s-2.15,5.51-5.91,5.51H212.93c-3.76,0-5.91-1.88-5.91-5.51s2.15-5.51,5.91-5.51h2.29v3.49h-2.52c-1.68,0-2.32.74-2.32,1.92s.64,1.91,2.32,1.91h12.7c1.68,0,2.28-.74,2.28-1.91s-.6-1.92-2.28-1.92h-4.34v1.68Z"/><path class="cls-1" d="M230.8,115.46a7.2,7.2,0,0,1-2.89.34h-3.7c-2.18,0-3,.74-3,2.42v1.28h9.57v3.7H207.28v-5.58c0-3.83,1.78-5.47,5.41-5.47h1.85c2.42,0,4,.77,4.77,2.42.77-1.85,2.55-2.45,5-2.45h3.63a7,7,0,0,0,2.86-.4Zm-20.16,4h7.22V118c0-1.38-.61-2.22-2.49-2.22h-2.32c-1.68,0-2.42.57-2.42,1.88Z"/><path class="cls-1" d="M212.93,110c-3.76,0-5.91-2-5.91-5.61s2.15-5.61,5.91-5.61h12.23c3.76,0,5.91,2,5.91,5.61s-2.15,5.61-5.91,5.61Zm12.46-3.69c1.68,0,2.32-.74,2.32-1.91s-.64-1.92-2.32-1.92h-12.7c-1.68,0-2.32.74-2.32,1.92s.64,1.91,2.32,1.91Z"/><path class="cls-1" d="M207.28,92.82h18.14c1.68,0,2.29-.74,2.29-1.91S227.1,89,225.42,89H207.28V85.5h17.9c3.76,0,5.91,1.88,5.91,5.51s-2.15,5.51-5.91,5.51h-17.9Z"/><path class="cls-1" d="M213.1,72h3.06c3.76,0,5.81,1.81,5.81,5.51v1.75h8.84V83H207.28V77.52C207.28,73.83,209.33,72,213.1,72Zm-2.45,7.26h8V77.52c0-1.18-.54-1.81-2.22-1.81h-3.53c-1.68,0-2.22.64-2.22,1.81Z"/><path class="cls-2" d="M93.32,41.87A84.83,84.83,0,0,0,60,61.84l-4.93-4a91.72,91.72,0,0,1,36.31-22Z"/><path class="cls-2" d="M89.33,29.65A98,98,0,0,0,49.91,53.74l-4.93-4a104.27,104.27,0,0,1,42.4-26.1Z"/><path class="cls-2" d="M81.6,6a123.25,123.25,0,0,0-51.16,32.1l-4.9-3.93A129.06,129.06,0,0,1,79.65,0Z"/><path class="cls-2" d="M85.31,17.31A110.78,110.78,0,0,0,39.8,45.61l-4.93-4A117.56,117.56,0,0,1,83.36,11.34Z"/><path class="cls-2" d="M148.44,9.45l-1.54,6.06a111.94,111.94,0,0,0-55.56,0l-1.95-6a117.53,117.53,0,0,1,59-.13Z"/><path class="cls-2" d="M145.24,22l-1.54,6.09a98.4,98.4,0,0,0-48.34-.19l-1.95-6a104.41,104.41,0,0,1,51.82.06Z"/><path class="cls-2" d="M142.06,34.49l-1.54,6.06a85.39,85.39,0,0,0-21.36-2.7A83.85,83.85,0,0,0,99.38,40.2l-1.95-6a91,91,0,0,1,44.63.28Z"/><path class="cls-2" d="M184.72,59.33l-4.52,4.37A84.21,84.21,0,0,0,146.55,42.4l1.54-6.12A90.83,90.83,0,0,1,184.72,59.33Z"/><path class="cls-2" d="M194,50.38l-4.55,4.4a97.06,97.06,0,0,0-39.7-24.88l1.57-6.12A104.7,104.7,0,0,1,194,50.38Z"/><path class="cls-1" d="M1,156.19V147H7.71v9.23h-2v-7.31H3v7.31Z"/><path class="cls-1" d="M10.56,151.45a5.6,5.6,0,0,1,.54-2.47,4,4,0,0,1,1.41-1.67,3.54,3.54,0,0,1,2-.56,3.36,3.36,0,0,1,2.87,1.43,5.55,5.55,0,0,1,1,3.35,6,6,0,0,1-.54,2.58,4.12,4.12,0,0,1-1.42,1.73,3.48,3.48,0,0,1-1.94.58,3.55,3.55,0,0,1-2.8-1.29A5.46,5.46,0,0,1,10.56,151.45Zm2.05.13a3.47,3.47,0,0,0,.55,2.12,1.61,1.61,0,0,0,1.33.72,1.58,1.58,0,0,0,1.29-.72,3.53,3.53,0,0,0,.54-2.13,3.42,3.42,0,0,0-.55-2.1,1.54,1.54,0,0,0-2.62,0A3.48,3.48,0,0,0,12.61,151.58Z"/><path class="cls-1" d="M27.7,149.68l-2,.44c-.15-1-.6-1.45-1.37-1.45a1.4,1.4,0,0,0-1.2.63,3.71,3.71,0,0,0-.46,2.12,4.41,4.41,0,0,0,.45,2.33,1.39,1.39,0,0,0,1.21.68,1.22,1.22,0,0,0,.93-.39,2.58,2.58,0,0,0,.52-1.37l2,.41q-.61,3.34-3.5,3.34A3,3,0,0,1,21.55,155a6.21,6.21,0,0,1-.89-3.4,5.59,5.59,0,0,1,1-3.62,3.56,3.56,0,0,1,4.83-.54A4.05,4.05,0,0,1,27.7,149.68Z"/><path class="cls-1" d="M29.48,148.88V147h6.86v1.92H33.91v7.31h-2v-7.31Z"/><path class="cls-1" d="M40.18,149.77l-1.82-.4a3.55,3.55,0,0,1,1.09-2,3.41,3.41,0,0,1,2.18-.61,4.22,4.22,0,0,1,1.94.36,2.09,2.09,0,0,1,1,1,5.87,5.87,0,0,1,.29,2.23l0,2.85a12.27,12.27,0,0,0,.09,1.79,6,6,0,0,0,.36,1.25h-2l-.26-1a3.67,3.67,0,0,1-1.1.92,2.62,2.62,0,0,1-1.25.31,2.37,2.37,0,0,1-1.8-.74,2.75,2.75,0,0,1-.7-2,3.1,3.1,0,0,1,.29-1.37,2.39,2.39,0,0,1,.81-.93,5.4,5.4,0,0,1,1.67-.62,9.53,9.53,0,0,0,1.94-.6,2.88,2.88,0,0,0-.11-1,.85.85,0,0,0-.4-.39,1.77,1.77,0,0,0-.82-.15,1.33,1.33,0,0,0-.85.25A1.79,1.79,0,0,0,40.18,149.77Zm2.68,2a10.32,10.32,0,0,1-1.19.37,2.8,2.8,0,0,0-1.22.54,1.07,1.07,0,0,0-.28.77,1.31,1.31,0,0,0,.32.89,1,1,0,0,0,.8.36,1.43,1.43,0,0,0,.84-.29,1.55,1.55,0,0,0,.58-.69,4.44,4.44,0,0,0,.16-1.46Z"/><path class="cls-1" d="M52.9,156.19H48V147H52.5Q55,147,55,149.37a2,2,0,0,1-1.27,2.09,2.2,2.2,0,0,1,1.54,2.3,2.4,2.4,0,0,1-.66,1.76A2.31,2.31,0,0,1,52.9,156.19ZM50,148.51v2.26h1.48c1.07,0,1.61-.39,1.61-1.18s-.54-1.08-1.61-1.08Zm0,3.76v2.38h1.75q1.49,0,1.49-1.18a1.09,1.09,0,0,0-.37-.89,2.89,2.89,0,0,0-1.65-.31Z"/><path class="cls-1" d="M68.21,154.22H69v4.41H67.39v-2.44H58V147h2v7.26h2.07V147h2v7.26H66.2V147h2Z"/><path class="cls-1" d="M71.51,156.19V147h1.92v5.79L76.5,147h2v9.23H76.55v-5.92l-3.13,5.92Z"/><path class="cls-1" d="M81.6,156.19V147h2v3.76a1,1,0,0,0,.63-.27,4,4,0,0,0,.54-1.33,5.89,5.89,0,0,1,.71-1.66,1.56,1.56,0,0,1,1.37-.55,6.63,6.63,0,0,1,.78.07v1.58h-.22a1.57,1.57,0,0,0-.73.14c-.17.09-.32.4-.47.92a7.35,7.35,0,0,1-.42,1.19,1.45,1.45,0,0,1-.66.65,2.13,2.13,0,0,1,.77.55,6.52,6.52,0,0,1,.93,1.65l1.1,2.55H85.79l-1-2.68a3.63,3.63,0,0,0-.52-1,.87.87,0,0,0-.65-.23v3.95Z"/><path class="cls-1" d="M95.31,156.19V147h2v7.26h2.07V147h2v7.26h2.09V147h2v9.23Z"/><path class="cls-1" d="M108.2,151.45a5.6,5.6,0,0,1,.54-2.47,4,4,0,0,1,1.41-1.67,3.54,3.54,0,0,1,2-.56,3.36,3.36,0,0,1,2.87,1.43,5.55,5.55,0,0,1,1,3.35,6,6,0,0,1-.54,2.58,4.12,4.12,0,0,1-1.42,1.73,3.48,3.48,0,0,1-1.94.58,3.55,3.55,0,0,1-2.8-1.29A5.46,5.46,0,0,1,108.2,151.45Zm2.05.13a3.47,3.47,0,0,0,.55,2.12,1.61,1.61,0,0,0,1.33.72,1.58,1.58,0,0,0,1.29-.72,3.53,3.53,0,0,0,.54-2.13,3.42,3.42,0,0,0-.55-2.1,1.54,1.54,0,0,0-2.62,0A3.48,3.48,0,0,0,110.25,151.58Z"/><path class="cls-1" d="M117.79,147h2.14l1.8,6.55L123.5,147h2.08l-2.67,8.88-.51,1.73a5.6,5.6,0,0,1-.67,1.42,2.23,2.23,0,0,1-.85.7,3,3,0,0,1-1.27.24,4.42,4.42,0,0,1-1.14-.15l-.17-1.91a3.66,3.66,0,0,0,.84.11,1.27,1.27,0,0,0,.95-.38,3.05,3.05,0,0,0,.61-1.39Z"/><path class="cls-1" d="M127.43,152.79v-2.44h3.94v2.44Z"/><path class="cls-1" d="M133.14,148.88V147H140v1.92h-2.43v7.31h-2v-7.31Z"/><path class="cls-1" d="M146.74,153.26l2,.41a4,4,0,0,1-1.25,2.07,3.2,3.2,0,0,1-2.05.67,3.15,3.15,0,0,1-2.59-1.12,5.58,5.58,0,0,1-1.08-3.66,5.87,5.87,0,0,1,1.08-3.71,2.89,2.89,0,0,1,2.38-1.18,3,3,0,0,1,2.55,1.2,6.55,6.55,0,0,1,1.06,4.06v.28h-5a2.77,2.77,0,0,0,.49,1.7,1.43,1.43,0,0,0,1.15.6C146.1,154.59,146.53,154.15,146.74,153.26Zm.1-2.48a2.68,2.68,0,0,0-.46-1.63,1.29,1.29,0,0,0-1-.55,1.31,1.31,0,0,0-1.07.57,2.54,2.54,0,0,0-.43,1.6Z"/><path class="cls-1" d="M150.66,156.19l2.72-4.72-2.6-4.51h2.45l1.37,2.38L156,147h2.35l-2.54,4.41,2.79,4.82h-2.46l-1.55-2.69L153,156.19Z"/><path class="cls-1" d="M160.81,156.19V147h2v3.36h2.87V147h2v9.23h-2v-3.89h-2.87v3.89Z"/><path class="cls-1" d="M170.81,156.19V147h1.92v5.79l3.08-5.79h2v9.23h-1.93v-5.92l-3.13,5.92Z"/><path class="cls-1" d="M180.91,156.19V147h2v3.76a1,1,0,0,0,.63-.27,4,4,0,0,0,.54-1.33,5.88,5.88,0,0,1,.71-1.66,1.56,1.56,0,0,1,1.37-.55,6.63,6.63,0,0,1,.78.07v1.58h-.22a1.57,1.57,0,0,0-.73.14c-.17.09-.32.4-.47.92a7.36,7.36,0,0,1-.42,1.19,1.45,1.45,0,0,1-.66.65,2.13,2.13,0,0,1,.77.55,6.52,6.52,0,0,1,.93,1.65l1.1,2.55H185.1l-1-2.68a3.63,3.63,0,0,0-.52-1,.87.87,0,0,0-.65-.23v3.95Z"/><path class="cls-1" d="M189.4,156.19V147h1.92v5.79l3.08-5.79h2v9.23h-1.93v-5.92l-3.13,5.92Z"/></g></g></svg>