<svg xmlns="http://www.w3.org/2000/svg" width="40" height="40"><path opacity=".34" fill="#d29b0a" d="M20.201 5.169c-8.254 0-14.946 6.692-14.946 14.946 0 8.255 6.692 14.946 14.946 14.946s14.946-6.691 14.946-14.946c-.001-8.254-6.692-14.946-14.946-14.946zm0 26.58c-6.425 0-11.634-5.208-11.634-11.634 0-6.425 5.209-11.634 11.634-11.634 6.425 0 11.633 5.209 11.633 11.634 0 6.426-5.208 11.634-11.633 11.634z"/><path fill="#d29b0a" d="M30.501 15.006l2.96-1.48a14.855 14.855 0 00-5.123-5.793l-1.825 2.764a11.57 11.57 0 013.988 4.509z"><animateTransform attributeType="xml" attributeName="transform" type="rotate" from="0 20 20" to="360 20 20" dur="0.5s" repeatCount="indefinite"/></path></svg>
