<svg xmlns="http://www.w3.org/2000/svg" width="32" height="32" viewBox="0 0 1300 1300" fill="none">
<rect width="1300" height="1300" fill="white"/>
<path d="M599.099 173.333V691.135C599.099 739.077 620.322 756.325 653.467 756.325C686.611 756.325 707.834 739.077 707.834 691.135V173.333H807.184V684.455C807.184 791.922 754.169 853.223 650.592 853.223C547.015 853.223 494 791.922 494 684.455V173.333H599.099Z" fill="#1E1E1C"/>
<path d="M532.385 900.085C541.245 900.085 545.8 905.385 545.8 914.66V916.482H537.188V914.08C537.188 909.94 535.532 908.366 532.633 908.366C529.735 908.366 528.079 909.94 528.079 914.08C528.079 926.005 545.883 928.241 545.883 944.803C545.883 954.077 541.246 959.377 532.302 959.377C523.359 959.377 518.721 954.077 518.721 944.803V941.242H527.333V945.382C527.333 949.523 529.155 951.013 532.054 951.013C534.952 951.013 536.774 949.523 536.774 945.382C536.774 933.458 518.97 931.222 518.97 914.66C518.97 905.385 523.524 900.085 532.385 900.085Z" fill="#1D1D1B"/>
<path d="M579.089 900.749H607.245V909.03H597.722V958.715H588.613V909.03H579.089V900.749Z" fill="#1D1D1B"/>
<path d="M668.192 958.715H659.001L657.427 948.198H646.248L644.675 958.715H636.311L645.585 900.749H658.918L668.192 958.715ZM647.407 940.332H656.185L651.796 911.017L647.407 940.332Z" fill="#1D1D1B"/>
<path d="M716.719 926.419H729.472V944.803C729.472 954.077 724.834 959.377 715.891 959.377C706.948 959.377 702.31 954.077 702.31 944.803V914.66C702.31 905.385 706.948 900.085 715.891 900.085C724.834 900.085 729.472 905.385 729.472 914.66V920.291H720.86V914.08C720.86 909.94 719.038 908.366 716.139 908.366C713.241 908.366 711.419 909.94 711.419 914.08V945.382C711.419 949.523 713.241 951.013 716.139 951.013C719.038 951.013 720.86 949.523 720.86 945.382V934.7H716.719V926.419Z" fill="#1D1D1B"/>
<path d="M775.099 925.177H787.604V933.458H775.099V950.434H790.833V958.715H765.99V900.749H790.833V909.03H775.099V925.177Z" fill="#1D1D1B"/>
<path d="M806.444 981.662C703.96 1043.5 596.844 1043 494.444 980.24V1082.41C597.013 1142.07 703.791 1142.65 806.444 1084V981.662Z" fill="#D29C0C"/>
</svg>