<svg width="950" height="524" viewBox="0 0 950 524" fill="none" xmlns="http://www.w3.org/2000/svg">
<path d="M47.7099 3.47803V238.397C47.7099 260.135 57.3385 267.961 72.4073 267.961C87.4761 267.961 97.1047 260.135 97.1047 238.397V3.47803H142.215V235.354C142.215 284.096 118.143 311.921 71.1074 311.921C24.0715 311.921 0 284.096 0 235.354V3.47803H47.7099Z" fill="white"/>
<path d="M238.79 0C285.2 0 309.031 27.825 309.031 76.567V86.229H264.017V73.524C264.017 51.785 255.351 43.477 240.186 43.477C225.021 43.477 216.355 51.785 216.355 73.524C216.355 136.324 309.561 147.917 309.561 234.919C309.561 283.661 285.489 311.486 238.453 311.486C191.417 311.486 167.346 283.661 167.346 234.919V216.224H212.456V237.962C212.456 259.701 222.084 267.527 237.153 267.527C252.222 267.527 261.899 259.701 261.899 237.962C261.899 175.163 168.646 163.569 168.646 76.567C168.549 27.825 192.428 0 238.79 0Z" fill="white"/>
<path d="M322.8 3.47803H470.214V46.955H420.386V307.815H372.676V46.955H322.8V3.47803Z" fill="white"/>
<path d="M628.846 308.008H580.703L572.47 252.744H513.928L505.696 308.008H461.886L510.462 3.67102H580.27L628.846 308.008ZM519.995 211.393H565.971L543.248 57.437L519.995 211.393Z" fill="white"/>
<path d="M722.388 138.352H789.162V234.967C789.162 283.71 764.85 311.535 718.055 311.535C671.26 311.535 646.948 283.71 646.948 234.967V76.567C646.948 27.825 671.019 0 718.055 0C765.091 0 789.162 27.825 789.162 76.567V106.131H744.052V73.524C744.052 51.785 734.424 43.477 719.355 43.477C704.286 43.477 694.658 51.785 694.658 73.524V237.769C694.658 259.508 704.286 267.333 719.355 267.333C734.424 267.333 744.052 259.508 744.052 237.769V181.829H722.388V138.352Z" fill="white"/>
<path d="M867.539 131.831H933.207V175.308H867.732V264.483H950.105V307.96H820.119V3.62305H950.105V47.1H867.539V131.831Z" fill="white"/>
<path d="M37.2627 437.327H70.289V485.103C70.289 509.257 58.3014 522.977 35.1445 522.977C11.9877 522.977 0 509.209 0 485.103V406.845C0 382.692 11.9877 368.972 35.1445 368.972C58.3014 368.972 70.289 382.74 70.289 406.845V421.338H47.9987V405.203C47.9987 394.43 43.1844 390.324 35.7703 390.324C28.3563 390.324 23.542 394.43 23.542 405.203V486.504C23.542 497.229 28.3563 500.997 35.7703 500.997C43.1844 500.997 47.9987 497.132 47.9987 486.504V458.728H37.2627V437.327Z" fill="white"/>
<path d="M484.437 370.125H505.293V523.594H484.437V370.125Z" fill="white"/>
<path d="M134.897 521.189C132.919 515.236 132.182 508.939 132.731 502.688V479.065C132.731 465.056 127.916 459.742 117.325 459.742H109.189V521.044H85.5986V370.663H121.176C145.585 370.663 156.128 382.064 156.128 405.3V417.087C156.128 432.593 151.314 442.69 140.674 447.665C152.469 452.496 156.321 463.993 156.321 479.693V502.929C155.91 509.127 156.778 515.344 158.872 521.189H134.897ZM109.189 392.16V438.39H118.384C127.194 438.39 132.538 434.526 132.538 422.497V407.812C132.538 397.039 128.879 392.305 120.502 392.305L109.189 392.16Z" fill="white"/>
<path d="M279.326 370.663V486.601C279.326 497.374 284.141 501.093 291.555 501.093C298.969 501.093 303.783 497.229 303.783 486.601V370.663H326.074V485.104C326.074 509.257 314.038 522.977 290.929 522.977C267.82 522.977 255.736 509.209 255.736 485.104V370.663H279.326Z" fill="white"/>
<path d="M169.945 406.797C169.945 382.643 182.559 368.924 205.716 368.924C228.872 368.924 241.534 382.692 241.534 406.797V485.103C241.534 509.257 228.872 522.977 205.716 522.977C182.559 522.977 169.945 509.209 169.945 485.103V406.797ZM193.487 486.601C193.487 497.325 198.302 501.431 205.716 501.431C213.13 501.431 217.944 497.325 217.944 486.601V405.3C217.944 394.527 213.13 390.421 205.716 390.421C198.302 390.421 193.487 394.527 193.487 405.3V486.601Z" fill="white"/>
<path d="M412.105 407.812V427.376C412.105 451.53 400.551 464.573 376.961 464.573H365.792V521.141H342.202V370.663H376.961C400.551 370.663 412.105 383.658 412.105 407.812ZM365.792 392.112V443.076H376.961C384.471 443.076 388.515 439.646 388.515 428.874V406.362C388.515 395.59 384.471 392.16 376.961 392.16L365.792 392.112Z" fill="white"/>
<path d="M944.663 473.028L938.105 493.319L929.01 521.744H921.927V460.521H927.961V506.176L934.257 486.847L943.177 460.521H950.785V521.744H944.663V473.028Z" fill="white"/>
<path d="M909.669 521.744L896.552 495.156L892.967 501.191V521.744H886.146V460.521H892.967V490.083L909.232 460.521H916.14L900.662 488.421L916.665 521.744H909.669Z" fill="white"/>
<path d="M873.101 473.028L866.542 493.319L857.448 521.744H850.365V460.521H856.399V506.176L862.695 486.847L871.614 460.521H879.222V521.744H873.101V473.028Z" fill="white"/>
<path d="M836.53 494.194H821.489V521.744H814.668V460.521H821.489V488.072H836.53V460.521H843.351V521.744H836.53V494.194Z" fill="white"/>
<path d="M802.026 521.744L791.882 495.331L781.651 521.744H775.18L787.51 490.171L775.967 460.521H783.05L792.495 485.01L802.026 460.521H808.41L796.954 490.171L809.197 521.744H802.026Z" fill="white"/>
<path d="M751.976 487.634H766.929V493.757H751.976V515.535H770.34V521.744H745.155V460.521H770.34V466.731H751.976V487.634Z" fill="white"/>
<path d="M728.797 521.744H721.976V466.731H710.695V460.521H740.077V466.731H728.797V521.744Z" fill="white"/>
<path d="M689.214 494.194V488.072H705.916V494.194H689.214Z" fill="white"/>
<path d="M684.493 460.521L671.376 508.275C669.277 517.459 666.129 522.357 655.023 521.832V515.709C660.27 515.972 662.631 514.31 663.768 509.675L665.167 505.651L651.088 460.521H657.909L664.117 481.774L668.315 497.168L671.9 481.774L677.409 460.521H684.493Z" fill="white"/>
<path d="M618.499 506.963V475.302C618.499 465.944 623.134 459.909 632.49 459.909C641.935 459.909 646.569 465.944 646.569 475.302V506.963C646.569 516.234 641.935 522.356 632.49 522.356C623.134 522.356 618.499 516.234 618.499 506.963ZM625.232 474.952V507.313C625.232 512.911 627.593 516.147 632.49 516.147C637.475 516.147 639.749 512.911 639.749 507.313V474.952C639.749 469.442 637.475 466.119 632.49 466.119C627.593 466.119 625.232 469.442 625.232 474.952Z" fill="white"/>
<path d="M568.212 460.521H575.033V515.535H586.751V460.521H593.572V515.535H605.29V460.521H612.023V521.744H568.212V460.521Z" fill="white"/>
<path d="M888.49 431.043L875.373 404.455L871.788 410.49V431.043H864.967V369.82H871.788V399.382L888.053 369.82H894.961L879.483 397.72L895.486 431.043H888.49Z" fill="white"/>
<path d="M851.922 382.327L845.364 402.618L836.269 431.043H829.186V369.82H835.22V415.475L841.516 396.146L850.436 369.82H858.043V431.043H851.922V382.327Z" fill="white"/>
<path d="M823.321 439.265H816.762V431.043H774.788V369.82H781.609V424.833H793.327V369.82H800.06V424.833H811.865V369.82H818.599V425.008H823.321V439.265Z" fill="white"/>
<path d="M740.544 369.82H754.273C763.805 369.82 767.565 374.368 767.565 383.377V386.263C767.565 392.735 765.729 396.758 760.394 398.42C766.341 400.082 768.614 404.805 768.614 411.539V416.7C768.614 425.883 764.155 431.043 754.623 431.043H740.544V369.82ZM747.365 395.796H752.612C758.033 395.796 760.832 394.047 760.832 387.662V384.076C760.832 378.654 758.995 376.03 754.098 376.03H747.365V395.796ZM747.365 424.833H754.623C759.607 424.833 761.881 422.21 761.881 416.525V411.102C761.881 404.28 759.17 402.006 753.311 402.006H747.365V424.833Z" fill="white"/>
<path d="M726.039 418.711H710.561L708.199 431.043H701.903L713.621 369.82H723.503L735.22 431.043H728.4L726.039 418.711ZM718.168 377.517L711.435 412.851H725.077L718.168 377.517Z" fill="white"/>
<path d="M687.293 431.043H680.473V376.03H669.192V369.82H698.574V376.03H687.293V431.043Z" fill="white"/>
<path d="M651.101 369.208C660.545 369.208 664.917 375.33 664.917 384.601V390.111H658.446V384.251C658.446 378.741 656.26 375.418 651.276 375.418C646.379 375.418 644.105 378.741 644.105 384.251V416.612C644.105 422.122 646.379 425.446 651.276 425.446C656.26 425.446 658.446 422.122 658.446 416.612V408.653H664.917V416.262C664.917 425.533 660.545 431.655 651.101 431.655C641.744 431.655 637.372 425.533 637.372 416.262V384.601C637.372 375.33 641.744 369.208 651.101 369.208Z" fill="white"/>
<path d="M603.384 416.262V384.601C603.384 375.243 608.018 369.208 617.375 369.208C626.819 369.208 631.454 375.243 631.454 384.601V416.262C631.454 425.533 626.819 431.655 617.375 431.655C608.018 431.655 603.384 425.533 603.384 416.262ZM610.117 384.251V416.612C610.117 422.21 612.478 425.446 617.375 425.446C622.36 425.446 624.633 422.21 624.633 416.612V384.251C624.633 378.741 622.36 375.418 617.375 375.418C612.478 375.418 610.117 378.741 610.117 384.251Z" fill="white"/>
<path d="M590.074 376.03H575.033V431.043H568.212V369.82H596.895V431.043H590.074V376.03Z" fill="white"/>
</svg>
