<svg width="951" height="891" viewBox="0 0 951 891" fill="none" xmlns="http://www.w3.org/2000/svg">
<g clip-path="url(#clip0_2168_2)">
<path d="M47.7099 351.437V586.356C47.7099 608.094 57.3385 615.92 72.4073 615.92C87.4761 615.92 97.1047 608.094 97.1047 586.356V351.437H142.215V583.313C142.215 632.055 118.143 659.88 71.1074 659.88C24.0715 659.88 0 632.055 0 583.313V351.437H47.7099Z" fill="#1D1D1B"/>
<path d="M238.79 347.959C285.2 347.959 309.031 375.784 309.031 424.526V434.188H264.017V421.483C264.017 399.744 255.351 391.436 240.186 391.436C225.021 391.436 216.355 399.744 216.355 421.483C216.355 484.283 309.561 495.876 309.561 582.878C309.561 631.62 285.489 659.445 238.453 659.445C191.417 659.445 167.346 631.62 167.346 582.878V564.183H212.456V585.921C212.456 607.66 222.084 615.486 237.153 615.486C252.222 615.486 261.899 607.66 261.899 585.921C261.899 523.122 168.646 511.528 168.646 424.526C168.549 375.784 192.428 347.959 238.79 347.959Z" fill="#1D1D1B"/>
<path d="M322.8 351.437H470.214V394.914H420.386V655.774H372.676V394.914H322.8V351.437Z" fill="#1D1D1B"/>
<path d="M628.846 655.967H580.703L572.47 600.703H513.928L505.696 655.967H461.886L510.462 351.63H580.27L628.846 655.967ZM519.995 559.352H565.971L543.248 405.396L519.995 559.352Z" fill="#1D1D1B"/>
<path d="M722.388 486.311H789.162V582.926C789.162 631.669 764.85 659.494 718.055 659.494C671.26 659.494 646.948 631.669 646.948 582.926V424.526C646.948 375.784 671.019 347.959 718.055 347.959C765.091 347.959 789.162 375.784 789.162 424.526V454.09H744.052V421.483C744.052 399.744 734.424 391.436 719.355 391.436C704.286 391.436 694.658 399.744 694.658 421.483V585.728C694.658 607.467 704.286 615.292 719.355 615.292C734.424 615.292 744.052 607.467 744.052 585.728V529.788H722.388V486.311Z" fill="#1D1D1B"/>
<path d="M867.539 479.79H933.207V523.267H867.732V612.442H950.105V655.919H820.119V351.582H950.105V395.059H867.539V479.79Z" fill="#1D1D1B"/>
<path d="M37.2627 785.286H70.289V833.062C70.289 857.216 58.3014 870.936 35.1445 870.936C11.9877 870.936 0 857.168 0 833.062V754.804C0 730.651 11.9877 716.931 35.1445 716.931C58.3014 716.931 70.289 730.699 70.289 754.804V769.297H47.9987V753.162C47.9987 742.389 43.1844 738.283 35.7703 738.283C28.3563 738.283 23.542 742.389 23.542 753.162V834.463C23.542 845.188 28.3563 848.956 35.7703 848.956C43.1844 848.956 47.9987 845.091 47.9987 834.463V806.687H37.2627V785.286Z" fill="#1D1D1B"/>
<path d="M134.897 869.148C132.919 863.195 132.182 856.898 132.731 850.647V827.024C132.731 813.015 127.916 807.701 117.325 807.701H109.189V869.003H85.5986V718.622H121.176C145.585 718.622 156.128 730.023 156.128 753.259V765.046C156.128 780.552 151.314 790.649 140.674 795.624C152.469 800.455 156.321 811.952 156.321 827.652V850.888C155.91 857.086 156.778 863.303 158.872 869.148H134.897ZM109.189 740.119V786.349H118.384C127.194 786.349 132.538 782.485 132.538 770.456V755.771C132.538 744.998 128.879 740.264 120.502 740.264L109.189 740.119Z" fill="#1D1D1B"/>
<path d="M169.945 754.756C169.945 730.602 182.559 716.883 205.716 716.883C228.872 716.883 241.534 730.651 241.534 754.756V833.062C241.534 857.216 228.872 870.936 205.716 870.936C182.559 870.936 169.945 857.168 169.945 833.062V754.756ZM193.487 834.56C193.487 845.284 198.302 849.39 205.716 849.39C213.13 849.39 217.944 845.284 217.944 834.56V753.259C217.944 742.486 213.13 738.38 205.716 738.38C198.302 738.38 193.487 742.486 193.487 753.259V834.56Z" fill="#1D1D1B"/>
<path d="M279.326 718.622V834.56C279.326 845.333 284.141 849.052 291.555 849.052C298.969 849.052 303.783 845.188 303.783 834.56V718.622H326.074V833.063C326.074 857.216 314.038 870.936 290.929 870.936C267.82 870.936 255.736 857.168 255.736 833.063V718.622H279.326Z" fill="#1D1D1B"/>
<path d="M412.105 755.771V775.335C412.105 799.489 400.551 812.532 376.961 812.532H365.792V869.1H342.202V718.622H376.961C400.551 718.622 412.105 731.617 412.105 755.771ZM365.792 740.071V791.035H376.961C384.471 791.035 388.515 787.605 388.515 776.833V754.321C388.515 743.549 384.471 740.119 376.961 740.119L365.792 740.071Z" fill="#1D1D1B"/>
<path d="M348.653 202.263C288.448 221.571 233.534 254.645 188.24 298.878L164.505 279.797C213.667 231.136 273.526 194.734 339.265 173.521L348.653 202.263Z" fill="#D39C0A"/>
<path d="M329.444 143.232C257.853 166.31 192.789 206.207 139.663 259.604L115.929 240.281C172.843 182.329 242.898 139.068 320.104 114.199L329.444 143.232Z" fill="#D39C0A"/>
<path d="M292.277 28.8396C198.605 59.2059 113.942 112.498 45.9285 183.907L22.3384 164.922C94.0066 88.8634 183.613 32.1446 282.889 0L292.277 28.8396Z" fill="#D39C0A"/>
<path d="M310.09 83.6203C227.003 110.503 151.767 157.448 90.9904 220.33L67.2559 201.007C131.895 133.722 212.08 83.4794 300.702 54.7324L310.09 83.6203Z" fill="#D39C0A"/>
<path d="M614.018 45.6505L606.604 74.9732C518.862 52.397 426.862 52.397 339.121 74.9732L329.781 45.9887C422.871 21.5678 520.628 21.3516 613.825 45.3607L614.018 45.6505Z" fill="#D39C0A"/>
<path d="M598.612 106.373L591.39 135.792C515.098 116.076 435.111 115.76 358.666 134.874L349.327 105.89C389.84 95.527 431.486 90.2853 473.295 90.2866C515.58 90.2755 557.692 95.6814 598.612 106.373V106.373Z" fill="#D39C0A"/>
<path d="M583.351 166.419L575.937 195.694C542.344 187.01 507.792 182.628 473.103 182.651C441.008 182.62 409.023 186.431 377.828 194.003L368.488 165.018C439.118 147.616 512.951 148.097 583.351 166.419V166.419Z" fill="#D39C0A"/>
<path d="M788.777 286.608L767.017 307.719C721.941 261.011 666.376 225.812 604.967 205.065L612.381 175.501C679.244 197.73 739.762 235.849 788.777 286.608V286.608Z" fill="#D39C0A"/>
<path d="M833.31 243.373L811.357 264.628C758.405 209.503 692.799 168.237 620.276 144.439L627.835 114.875C705.714 140.319 776.241 184.425 833.31 243.373V243.373Z" fill="#D39C0A"/>
<path d="M484.437 718.084H505.293V871.553H484.437V718.084Z" fill="#D39C0A"/>
<path d="M944.663 820.987L938.105 841.278L929.01 869.703H921.927V808.48H927.961V854.135L934.257 834.806L943.177 808.48H950.785V869.703H944.663V820.987Z" fill="black"/>
<path d="M909.669 869.703L896.552 843.115L892.967 849.15V869.703H886.146V808.48H892.967V838.042L909.232 808.48H916.14L900.662 836.38L916.665 869.703H909.669Z" fill="black"/>
<path d="M873.101 820.987L866.542 841.278L857.448 869.703H850.365V808.48H856.399V854.135L862.695 834.806L871.614 808.48H879.222V869.703H873.101V820.987Z" fill="black"/>
<path d="M836.53 842.153H821.489V869.703H814.668V808.48H821.489V836.031H836.53V808.48H843.351V869.703H836.53V842.153Z" fill="black"/>
<path d="M802.026 869.703L791.882 843.29L781.651 869.703H775.18L787.51 838.13L775.967 808.48H783.05L792.495 832.969L802.026 808.48H808.41L796.954 838.13L809.197 869.703H802.026Z" fill="black"/>
<path d="M751.976 835.593H766.929V841.716H751.976V863.494H770.34V869.703H745.155V808.48H770.34V814.69H751.976V835.593Z" fill="black"/>
<path d="M728.797 869.703H721.976V814.69H710.695V808.48H740.077V814.69H728.797V869.703Z" fill="black"/>
<path d="M689.214 842.153V836.031H705.916V842.153H689.214Z" fill="black"/>
<path d="M684.493 808.48L671.376 856.234C669.277 865.418 666.129 870.316 655.023 869.791V863.668C660.27 863.931 662.631 862.269 663.768 857.634L665.167 853.61L651.088 808.48H657.909L664.117 829.733L668.315 845.127L671.9 829.733L677.409 808.48H684.493Z" fill="black"/>
<path d="M618.499 854.922V823.261C618.499 813.903 623.134 807.868 632.49 807.868C641.935 807.868 646.569 813.903 646.569 823.261V854.922C646.569 864.193 641.935 870.315 632.49 870.315C623.134 870.315 618.499 864.193 618.499 854.922ZM625.232 822.911V855.272C625.232 860.87 627.593 864.106 632.49 864.106C637.475 864.106 639.749 860.87 639.749 855.272V822.911C639.749 817.401 637.475 814.078 632.49 814.078C627.593 814.078 625.232 817.401 625.232 822.911Z" fill="black"/>
<path d="M568.212 808.48H575.033V863.494H586.751V808.48H593.572V863.494H605.29V808.48H612.023V869.703H568.212V808.48Z" fill="black"/>
<path d="M888.49 779.002L875.373 752.414L871.788 758.449V779.002H864.967V717.779H871.788V747.341L888.053 717.779H894.961L879.483 745.679L895.486 779.002H888.49Z" fill="black"/>
<path d="M851.922 730.286L845.364 750.577L836.269 779.002H829.186V717.779H835.22V763.434L841.516 744.105L850.436 717.779H858.043V779.002H851.922V730.286Z" fill="black"/>
<path d="M823.321 787.224H816.762V779.002H774.788V717.779H781.609V772.792H793.327V717.779H800.06V772.792H811.865V717.779H818.599V772.967H823.321V787.224Z" fill="black"/>
<path d="M740.544 717.779H754.273C763.805 717.779 767.565 722.327 767.565 731.336V734.222C767.565 740.694 765.729 744.717 760.394 746.379C766.341 748.041 768.614 752.764 768.614 759.498V764.659C768.614 773.842 764.155 779.002 754.623 779.002H740.544V717.779ZM747.365 743.755H752.612C758.033 743.755 760.832 742.006 760.832 735.621V732.035C760.832 726.613 758.995 723.989 754.098 723.989H747.365V743.755ZM747.365 772.792H754.623C759.607 772.792 761.881 770.169 761.881 764.484V759.061C761.881 752.239 759.17 749.965 753.311 749.965H747.365V772.792Z" fill="black"/>
<path d="M726.039 766.67H710.561L708.199 779.002H701.903L713.621 717.779H723.503L735.22 779.002H728.4L726.039 766.67ZM718.168 725.476L711.435 760.81H725.077L718.168 725.476Z" fill="black"/>
<path d="M687.293 779.002H680.473V723.989H669.192V717.779H698.574V723.989H687.293V779.002Z" fill="black"/>
<path d="M651.101 717.167C660.545 717.167 664.917 723.289 664.917 732.56V738.07H658.446V732.21C658.446 726.7 656.26 723.377 651.276 723.377C646.379 723.377 644.105 726.7 644.105 732.21V764.571C644.105 770.081 646.379 773.405 651.276 773.405C656.26 773.405 658.446 770.081 658.446 764.571V756.612H664.917V764.221C664.917 773.492 660.545 779.614 651.101 779.614C641.744 779.614 637.372 773.492 637.372 764.221V732.56C637.372 723.289 641.744 717.167 651.101 717.167Z" fill="black"/>
<path d="M603.384 764.221V732.56C603.384 723.202 608.018 717.167 617.375 717.167C626.819 717.167 631.454 723.202 631.454 732.56V764.221C631.454 773.492 626.819 779.614 617.375 779.614C608.018 779.614 603.384 773.492 603.384 764.221ZM610.117 732.21V764.571C610.117 770.169 612.478 773.405 617.375 773.405C622.36 773.405 624.633 770.169 624.633 764.571V732.21C624.633 726.7 622.36 723.377 617.375 723.377C612.478 723.377 610.117 726.7 610.117 732.21Z" fill="black"/>
<path d="M590.074 723.989H575.033V779.002H568.212V717.779H596.895V779.002H590.074V723.989Z" fill="black"/>
</g>
<defs>
<clipPath id="clip0_2168_2">
<rect width="949.912" height="890.5" fill="white"/>
</clipPath>
</defs>
</svg>
