<svg 
 xmlns="http://www.w3.org/2000/svg"
 xmlns:xlink="http://www.w3.org/1999/xlink"
 width="58px" height="59px">
<path fill-rule="evenodd"  stroke-width="2px" stroke="rgb(73, 182, 255)" fill="none"
 d="M54.679,5.288 C54.311,4.441 53.464,3.852 52.506,3.852 L5.357,3.852 C4.400,3.852 3.553,4.441 3.184,5.288 C2.816,6.172 3.000,7.204 3.700,7.867 L21.859,26.026 L21.859,43.928 C21.859,44.554 22.117,45.143 22.559,45.585 L31.989,55.015 C32.431,55.494 33.020,55.715 33.646,55.715 C33.941,55.715 34.273,55.641 34.567,55.531 C35.415,55.162 36.004,54.315 36.004,53.357 L36.004,26.026 L54.163,7.867 C54.863,7.204 55.047,6.172 54.679,5.288 Z"/>
</svg>